<svg width="32" height="33" viewBox="0 0 32 33" fill="none" xmlns="http://www.w3.org/2000/svg">
<path d="M25.8977 0.811035C22.6132 0.811035 19.9251 3.49922 19.9251 6.78365C19.9251 10.0681 22.6132 12.7563 25.8977 12.7563C29.1821 12.7563 31.8703 10.0681 31.8703 6.78365C31.8703 3.49922 29.1821 0.811035 25.8977 0.811035ZM25.8977 3.20008C27.891 3.20008 29.4812 4.79035 29.4812 6.78365C29.4812 8.77695 27.891 10.3672 25.8977 10.3672C23.9044 10.3672 22.3141 8.77695 22.3141 6.78365C22.3141 4.79035 23.9044 3.20008 25.8977 3.20008ZM16.7521 10.1557C16.5613 10.1569 16.3736 10.2039 16.2046 10.2926L10.68 13.0549C9.58388 11.6633 7.8869 10.7654 5.98897 10.7654C2.70454 10.7654 0.0163574 13.4536 0.0163574 16.738C0.0163574 20.0224 2.70454 22.7106 5.98897 22.7106C9.2734 22.7106 11.9616 20.0224 11.9616 16.738C11.9616 16.2028 11.8837 15.6895 11.7501 15.1951L17.2747 12.4327C17.5224 12.3171 17.723 12.1201 17.843 11.8744C17.9629 11.6288 17.995 11.3494 17.9338 11.083C17.8727 10.8165 17.722 10.5791 17.507 10.4104C17.2919 10.2416 17.0255 10.1517 16.7521 10.1557ZM5.98897 13.1544C7.98227 13.1544 9.57254 14.7447 9.57254 16.738C9.57254 18.7313 7.98227 20.3216 5.98897 20.3216C3.99567 20.3216 2.4054 18.7313 2.4054 16.738C2.4054 14.7447 3.99567 13.1544 5.98897 13.1544ZM15.0599 20.0852C14.7897 20.0897 14.5291 20.1856 14.3205 20.3573C14.1119 20.529 13.9677 20.7664 13.9114 21.0306C13.855 21.2949 13.89 21.5704 14.0104 21.8123C14.1309 22.0541 14.3298 22.248 14.5746 22.3622L20.1366 25.137C20.0009 25.6349 19.9251 26.153 19.9251 26.6924C19.9251 29.9768 22.6132 32.665 25.8977 32.665C29.1821 32.665 31.8703 29.9768 31.8703 26.6924C31.8703 23.4079 29.1821 20.7197 25.8977 20.7197C23.9997 20.7197 22.3028 21.6176 21.2067 23.0092L15.6323 20.222C15.4559 20.1294 15.2591 20.0823 15.0599 20.0852ZM25.8977 23.1088C27.891 23.1088 29.4812 24.6991 29.4812 26.6924C29.4812 28.6857 27.891 30.2759 25.8977 30.2759C23.9044 30.2759 22.3141 28.6857 22.3141 26.6924C22.3141 24.6991 23.9044 23.1088 25.8977 23.1088Z" fill="white"/>
</svg>
