<svg width="38" height="38" viewBox="0 0 38 38" fill="none" xmlns="http://www.w3.org/2000/svg">
<rect width="10.3345" height="14.4637" transform="matrix(0.699913 -0.714228 0.715736 0.698371 2.13489 25.6445)" fill="white"/>
<path d="M36.1333 0.631382C35.9278 0.661078 35.738 0.758522 35.5941 0.908272L31.0328 5.4551L27.4041 1.82638C26.8618 1.28404 26.1409 1.01048 25.4222 1.01028C24.7035 1.01009 23.9822 1.28124 23.4403 1.82638L16.9408 8.36974C16.8531 8.45648 16.7835 8.55974 16.736 8.67356C16.6885 8.78738 16.664 8.90948 16.664 9.03281C16.664 9.15615 16.6885 9.27825 16.736 9.39207C16.7835 9.50589 16.8531 9.60915 16.9408 9.69589L28.1474 20.9027C28.2328 20.9925 28.3354 21.0645 28.449 21.1142C28.5626 21.164 28.685 21.1906 28.809 21.1925C28.933 21.1944 29.0562 21.1716 29.1712 21.1253C29.2863 21.079 29.391 21.0103 29.4792 20.9231C29.5674 20.8358 29.6373 20.7319 29.6848 20.6174C29.7323 20.5028 29.7566 20.3799 29.756 20.2559C29.7555 20.1318 29.7302 20.0092 29.6817 19.895C29.6332 19.7809 29.5624 19.6775 29.4735 19.5911L18.9081 9.02553L24.7664 3.13797C25.1398 2.76241 25.7013 2.77582 26.078 3.15254L34.6615 11.7216C35.0382 12.0983 35.0382 12.6564 34.6615 13.0332L30.9308 16.7639C30.8409 16.8494 30.769 16.9519 30.7192 17.0655C30.6695 17.1791 30.6428 17.3015 30.6409 17.4255C30.639 17.5495 30.6619 17.6727 30.7082 17.7878C30.7544 17.9028 30.8232 18.0075 30.9104 18.0957C30.9976 18.1839 31.1015 18.2538 31.2161 18.3013C31.3307 18.3489 31.4536 18.3731 31.5776 18.3726C31.7016 18.372 31.8243 18.3468 31.9384 18.2983C32.0526 18.2498 32.1559 18.179 32.2424 18.09L35.973 14.3593C37.0577 13.2746 37.0577 11.4801 35.973 10.3954L32.3589 6.78126L36.9057 2.23443C37.0504 2.09858 37.1479 1.92015 37.1842 1.72506C37.2205 1.52997 37.1936 1.32839 37.1075 1.14963C37.0213 0.970864 36.8804 0.824224 36.7052 0.731024C36.5301 0.637823 36.3297 0.602918 36.1333 0.631382ZM15.1483 14.6216C14.9427 14.6513 14.753 14.7488 14.6091 14.8985L11.301 18.2066L9.84372 16.7493C9.75613 16.6607 9.65169 16.5906 9.53656 16.543C9.42142 16.4955 9.29793 16.4715 9.17336 16.4724C8.92676 16.4744 8.69098 16.5739 8.51758 16.7493L1.98889 23.2781C0.904184 24.3628 0.904222 26.1573 1.98889 27.242L5.63213 30.8707L1.08537 35.4175C0.995495 35.503 0.923569 35.6056 0.8738 35.7192C0.824031 35.8328 0.797419 35.9552 0.79552 36.0792C0.793621 36.2032 0.816473 36.3263 0.862741 36.4414C0.909008 36.5565 0.977761 36.6612 1.06498 36.7494C1.15219 36.8376 1.25612 36.9075 1.37068 36.955C1.48523 37.0025 1.60812 37.0268 1.73215 37.0262C1.85618 37.0257 1.97885 37.0004 2.093 36.9519C2.20715 36.9034 2.31048 36.8326 2.39694 36.7437L6.9437 32.1969L10.5724 35.811C11.6571 36.8957 13.437 36.8958 14.5216 35.811L21.0503 29.2822C21.138 29.1955 21.2076 29.0922 21.2551 28.9784C21.3026 28.8646 21.3271 28.7425 21.3271 28.6192C21.3271 28.4958 21.3026 28.3737 21.2551 28.2599C21.2076 28.1461 21.138 28.0428 21.0503 27.9561L19.6076 26.5279L22.9157 23.2198C23.0603 23.0839 23.1579 22.9055 23.1941 22.7104C23.2304 22.5153 23.2035 22.3138 23.1174 22.135C23.0313 21.9562 22.8904 21.8096 22.7152 21.7164C22.54 21.6232 22.3397 21.5883 22.1433 21.6167C21.9378 21.6464 21.748 21.7439 21.6041 21.8936L18.296 25.2017L12.6126 19.5328L15.9206 16.2247C16.0653 16.0888 16.1628 15.9104 16.1991 15.7153C16.2354 15.5202 16.2085 15.3186 16.1224 15.1399C16.0363 14.9611 15.8954 14.8145 15.7202 14.7213C15.545 14.6281 15.3447 14.5932 15.1483 14.6216ZM9.18794 18.7313L19.0684 28.6264L13.2101 34.4849C12.8333 34.8617 12.2607 34.8616 11.8839 34.4849L3.31503 25.9158C2.93825 25.539 2.93828 24.981 3.31503 24.6042L9.18794 18.7313Z" fill="white"/>
</svg>
