<svg width="43" height="49" viewBox="0 0 43 49" fill="none" xmlns="http://www.w3.org/2000/svg">
<rect x="18.3454" y="30.9132" width="6.62614" height="5.09324" fill="white"/>
<path d="M29.3667 15.3391C28.4216 11.8673 25.2234 9.30115 21.4227 9.30115C21.1088 9.30115 20.7894 9.31866 20.4744 9.35423C17.0313 9.73622 14.1779 12.3078 13.4036 15.6013C5.78796 18.0683 0.876465 23.6127 0.876465 29.7875C0.876465 33.6178 2.75551 37.2658 6.17814 40.1029C6.02119 42.4446 5.46521 45.3708 3.77462 46.855C3.51708 47.081 3.42755 47.4411 3.54969 47.7602C3.67182 48.0793 3.98021 48.29 4.32452 48.29C8.13511 48.29 11.9534 46.1901 14.5885 44.3299C16.8953 44.9577 19.3221 45.2762 21.809 45.2762C33.3514 45.2762 42.7416 38.3281 42.7416 29.7875C42.7422 23.4085 37.377 17.6289 29.3667 15.3391ZM14.8986 16.6121C15.2689 13.6815 17.6917 11.3151 20.659 10.9856C20.9132 10.9577 21.1702 10.9435 21.4227 10.9435C25.0493 10.9435 28 13.8653 28 17.4565C28 18.979 27.4567 20.4599 26.4696 21.6256C25.2411 23.0769 24.5652 24.8435 24.5652 26.5996V27.1059H22.4662V21.1916L24.1545 20.4998C24.5779 20.3269 24.779 19.8469 24.6033 19.4277C24.4287 19.0091 23.9462 18.8082 23.5206 18.9834L18.8518 20.8966C18.4284 21.0695 18.2273 21.5495 18.403 21.9687C18.5351 22.285 18.844 22.476 19.1695 22.476C19.2745 22.476 19.3823 22.4563 19.4857 22.4136L20.8087 21.8713V27.1059H18.7097C18.7025 25.1291 17.9846 23.3089 16.6881 21.9769C15.2993 20.5513 14.6477 18.5959 14.8986 16.6121ZM21.8096 43.6344C19.3381 43.6344 16.9335 43.3011 14.6609 42.6433C14.4117 42.5705 14.1464 42.6181 13.9386 42.7686C12.274 43.9748 9.28686 45.8623 6.19085 46.4599C7.3636 44.469 7.75433 41.8481 7.85768 39.7718C7.87039 39.5085 7.75488 39.2552 7.54708 39.0904C4.31457 36.5347 2.53445 33.2309 2.53445 29.7869C2.53445 24.5304 6.68769 19.7561 13.192 17.4111C13.1826 19.5361 13.9922 21.573 15.4943 23.1152C16.4985 24.1463 17.0517 25.5735 17.0517 27.1349V27.9257C17.0517 28.3788 17.4231 28.7466 17.8807 28.7466H25.3942C25.8518 28.7466 26.2232 28.3788 26.2232 27.9257V26.5986C26.2232 25.2271 26.762 23.8354 27.7402 22.6796C28.9765 21.2184 29.6579 19.3632 29.6579 17.4554C29.6579 17.3509 29.6463 17.2491 29.6419 17.1451C36.5242 19.3593 41.0842 24.3416 41.0842 29.7875C41.0842 37.4224 32.4373 43.6344 21.8096 43.6344Z" fill="white"/>
<path d="M25.3941 29.8606H17.8801C17.4225 29.8606 17.0511 30.2284 17.0511 30.6815V34.421C17.0511 35.8116 18.1929 36.9422 19.5972 36.9422H23.6764C25.0807 36.9422 26.2225 35.8116 26.2225 34.421V30.6815C26.2231 30.2284 25.8517 29.8606 25.3941 29.8606ZM24.5651 34.421C24.5651 34.9064 24.1666 35.3004 23.677 35.3004H19.5978C19.1076 35.3004 18.7097 34.9058 18.7097 34.421V31.5024H24.5651V34.421Z" fill="white"/>
<path d="M19.1689 19.8188C19.2739 19.8188 19.3817 19.7991 19.485 19.7564L24.1539 17.8432C24.5772 17.6702 24.7784 17.1903 24.6027 16.7711C24.428 16.3524 23.9455 16.1516 23.52 16.3267L18.8511 18.2399C18.4278 18.4129 18.2266 18.8928 18.4024 19.312C18.535 19.6278 18.8434 19.8188 19.1689 19.8188Z" fill="white"/>
<path d="M12.41 11.6858C12.572 11.8462 12.7842 11.9261 12.9964 11.9261C13.2086 11.9261 13.4209 11.8462 13.5828 11.6858C13.9066 11.3651 13.9066 10.8458 13.5828 10.5251L8.64531 5.63527C8.32145 5.31457 7.79698 5.31457 7.47312 5.63527C7.14926 5.95597 7.14926 6.47532 7.47312 6.79602L12.41 11.6858Z" fill="white"/>
<path d="M28.8291 11.9261C29.0413 11.9261 29.2535 11.8462 29.4155 11.6858L34.3535 6.79602C34.6773 6.47532 34.6773 5.95597 34.3535 5.63527C34.0296 5.31457 33.5051 5.31457 33.1813 5.63527L28.2433 10.5251C27.9194 10.8458 27.9194 11.3651 28.2433 11.6858C28.4046 11.8462 28.6169 11.9261 28.8291 11.9261Z" fill="white"/>
<path d="M21.4228 7.78091C21.8804 7.78091 22.2518 7.41315 22.2518 6.96002V0.874975C22.2518 0.421839 21.8804 0.0540771 21.4228 0.0540771C20.9652 0.0540771 20.5938 0.421839 20.5938 0.874975V6.96002C20.5938 7.41315 20.9647 7.78091 21.4228 7.78091Z" fill="white"/>
</svg>
