<svg width="119" height="72" viewBox="0 0 119 72" fill="none" xmlns="http://www.w3.org/2000/svg">
<path d="M89.5239 23.3696H88.5651V30C88.5651 31.3315 87.5242 32.4185 86.264 32.4185H85.8531C84.5656 32.4185 83.552 31.3315 83.552 30V11.712C83.552 8.94022 81.4427 6.71196 78.8676 6.71196H78.2924C75.6899 6.71196 73.608 8.96739 73.608 11.712V40.0272C73.608 41.3587 72.567 42.4456 71.3069 42.4456H70.622C69.3345 42.4456 68.3209 41.3587 68.3209 40.0272V12.3913C68.3209 11.2228 67.9922 10.1359 67.3895 9.29347C66.4855 8.0163 65.061 7.25543 63.5817 7.30978H62.8147C60.267 7.33695 58.1851 9.59239 58.1851 12.3098V26.5217C58.1851 27.8533 57.1441 28.9402 55.884 28.9402H54.8156C53.5281 28.9402 52.5145 27.8533 52.5145 26.5217V5C52.5145 2.22826 50.4052 0 47.8301 0H47.2548C44.6524 0 42.5704 2.25543 42.5704 5V30.0543C42.5704 31.3859 41.5295 32.4728 40.2693 32.4728H39.3927C38.1052 32.4728 37.0916 31.3859 37.0916 30.0543V16.2228C37.0916 13.6141 35.3384 11.413 33.0099 11.1141C31.4758 10.9239 30.0239 11.4946 28.983 12.7174C28.1885 13.6413 27.7776 14.837 27.7776 16.0598V22.5543H0C0.273941 23.4239 0.575276 24.2935 0.876611 25.163H29.0651H30.0239V16.1957C30.0239 14.9185 30.8732 13.8315 32.0237 13.6957C32.7634 13.6141 33.5304 13.8859 34.0235 14.4837C34.407 14.9185 34.5988 15.4891 34.5988 16.0598V30.0543C34.5988 32.8261 36.7081 35.0543 39.2831 35.0543H40.1598C42.7622 35.0543 44.8442 32.7989 44.8442 30.0543V5C44.8442 3.66848 45.8851 2.58152 47.1453 2.58152H47.7205C49.0081 2.58152 50.0216 3.66848 50.0216 5V26.5217C50.0216 29.2935 52.131 31.5217 54.706 31.5217H55.7744C58.3768 31.5217 60.4588 29.2663 60.4588 26.5217V12.3098C60.4588 11.0054 61.4724 9.91848 62.7325 9.8913H63.4995H63.5269C64.2118 9.8913 64.8692 10.1902 65.3075 10.7609C65.6363 11.1685 65.828 11.7663 65.828 12.4185V40C65.828 42.7717 67.9374 45 70.5124 45H71.1973C73.7997 45 75.8817 42.7446 75.8817 40V11.6848C75.8817 10.3533 76.9227 9.26631 78.1828 9.26631H78.7581C80.0456 9.26631 81.0592 10.3533 81.0592 11.6848V29.9728C81.0592 32.7446 83.1685 34.9728 85.7436 34.9728H86.1545C88.7569 34.9728 90.8389 32.7174 90.8389 29.9728V25.9511H118.096C118.425 25.0815 118.726 24.2391 119 23.3424H89.5239V23.3696Z" fill="#21ADD0"/>
<path d="M30.3069 69.225V58.5H31.9269V58.965C32.6169 58.545 33.2619 58.335 33.8619 58.335C34.8519 58.335 35.5769 58.64 36.0369 59.25C36.4969 59.85 36.7269 60.865 36.7269 62.295C36.7269 63.715 36.4619 64.715 35.9319 65.295C35.4119 65.875 34.5569 66.165 33.3669 66.165C32.9569 66.165 32.4819 66.12 31.9419 66.03V69.225H30.3069ZM33.5769 59.79C33.1069 59.79 32.6369 59.895 32.1669 60.105L31.9419 60.21V64.635C32.3419 64.715 32.7819 64.755 33.2619 64.755C33.9419 64.755 34.4119 64.56 34.6719 64.17C34.9319 63.78 35.0619 63.115 35.0619 62.175C35.0619 60.585 34.5669 59.79 33.5769 59.79ZM42.9085 58.5H44.5285V66H42.9085V65.535C42.1785 65.955 41.5035 66.165 40.8835 66.165C39.8535 66.165 39.1635 65.89 38.8135 65.34C38.4635 64.78 38.2885 63.805 38.2885 62.415V58.5H39.9235V62.43C39.9235 63.33 39.9985 63.935 40.1485 64.245C40.2985 64.555 40.6485 64.71 41.1985 64.71C41.7385 64.71 42.2335 64.61 42.6835 64.41L42.9085 64.32V58.5ZM46.5981 66V55.38H48.2331V66H46.5981ZM55.507 60.045C54.327 59.885 53.472 59.805 52.942 59.805C52.412 59.805 52.042 59.87 51.832 60C51.632 60.12 51.532 60.315 51.532 60.585C51.532 60.855 51.642 61.045 51.862 61.155C52.092 61.265 52.622 61.395 53.452 61.545C54.292 61.685 54.887 61.91 55.237 62.22C55.587 62.53 55.762 63.08 55.762 63.87C55.762 64.66 55.507 65.24 54.997 65.61C54.497 65.98 53.762 66.165 52.792 66.165C52.182 66.165 51.412 66.08 50.482 65.91L50.017 65.835L50.077 64.47C51.277 64.63 52.142 64.71 52.672 64.71C53.202 64.71 53.577 64.645 53.797 64.515C54.027 64.385 54.142 64.17 54.142 63.87C54.142 63.57 54.032 63.365 53.812 63.255C53.602 63.135 53.087 63.01 52.267 62.88C51.457 62.74 50.862 62.525 50.482 62.235C50.102 61.945 49.912 61.415 49.912 60.645C49.912 59.875 50.172 59.3 50.692 58.92C51.222 58.54 51.897 58.35 52.717 58.35C53.357 58.35 54.142 58.43 55.072 58.59L55.537 58.68L55.507 60.045ZM62.6733 64.65L63.0933 64.605L63.1233 65.82C61.9833 66.05 60.9733 66.165 60.0933 66.165C58.9833 66.165 58.1833 65.86 57.6933 65.25C57.2133 64.64 56.9733 63.665 56.9733 62.325C56.9733 59.665 58.0583 58.335 60.2283 58.335C62.3283 58.335 63.3783 59.48 63.3783 61.77L63.2733 62.94H58.6233C58.6333 63.56 58.7683 64.015 59.0283 64.305C59.2883 64.595 59.7733 64.74 60.4833 64.74C61.1933 64.74 61.9233 64.71 62.6733 64.65ZM61.7733 61.68C61.7733 60.94 61.6533 60.425 61.4133 60.135C61.1833 59.835 60.7883 59.685 60.2283 59.685C59.6683 59.685 59.2583 59.84 58.9983 60.15C58.7483 60.46 58.6183 60.97 58.6083 61.68H61.7733ZM64.8754 66V63.84H66.6304V66H64.8754ZM73.8793 64.65L74.2993 64.605L74.3293 65.82C73.1893 66.05 72.1793 66.165 71.2993 66.165C70.1893 66.165 69.3893 65.86 68.8993 65.25C68.4193 64.64 68.1793 63.665 68.1793 62.325C68.1793 59.665 69.2643 58.335 71.4343 58.335C73.5343 58.335 74.5843 59.48 74.5843 61.77L74.4793 62.94H69.8293C69.8393 63.56 69.9743 64.015 70.2343 64.305C70.4943 64.595 70.9793 64.74 71.6893 64.74C72.3993 64.74 73.1293 64.71 73.8793 64.65ZM72.9793 61.68C72.9793 60.94 72.8593 60.425 72.6193 60.135C72.3893 59.835 71.9943 59.685 71.4343 59.685C70.8743 59.685 70.4643 59.84 70.2043 60.15C69.9543 60.46 69.8243 60.97 69.8143 61.68H72.9793ZM78.9615 58.335C79.4915 58.335 80.1165 58.405 80.8365 58.545L81.2115 58.62L81.1515 59.91C80.3615 59.83 79.7765 59.79 79.3965 59.79C78.6365 59.79 78.1265 59.96 77.8665 60.3C77.6065 60.64 77.4765 61.28 77.4765 62.22C77.4765 63.16 77.6015 63.81 77.8515 64.17C78.1015 64.53 78.6215 64.71 79.4115 64.71L81.1665 64.59L81.2115 65.895C80.2015 66.075 79.4415 66.165 78.9315 66.165C77.7915 66.165 76.9865 65.86 76.5165 65.25C76.0565 64.63 75.8265 63.62 75.8265 62.22C75.8265 60.82 76.0715 59.825 76.5615 59.235C77.0515 58.635 77.8515 58.335 78.9615 58.335ZM83.124 59.31C83.644 58.66 84.504 58.335 85.704 58.335C86.904 58.335 87.759 58.66 88.269 59.31C88.789 59.96 89.049 60.935 89.049 62.235C89.049 63.535 88.799 64.515 88.299 65.175C87.799 65.835 86.934 66.165 85.704 66.165C84.474 66.165 83.609 65.835 83.109 65.175C82.609 64.515 82.359 63.535 82.359 62.235C82.359 60.935 82.614 59.96 83.124 59.31ZM84.354 64.185C84.584 64.585 85.034 64.785 85.704 64.785C86.374 64.785 86.824 64.585 87.054 64.185C87.284 63.785 87.399 63.13 87.399 62.22C87.399 61.31 87.274 60.665 87.024 60.285C86.784 59.905 86.344 59.715 85.704 59.715C85.064 59.715 84.619 59.905 84.369 60.285C84.129 60.665 84.009 61.31 84.009 62.22C84.009 63.13 84.124 63.785 84.354 64.185Z" fill="#21ADD0"/>
</svg>
